# xmcd
#
# Track frame offsets: 
#        150
#        19298
#        39698
#        62613
#        81230
#        104952
#        120148
#        140573
#        164998
#        179253
#        199935
#        227408
#        257492
#
# Disc length: 3459 seconds
#
# Revision: 3
# Processed by: cddbd v1.5.1PL2 Copyright (c) Steve Scherf et al.
# Submitted via: ExactAudioCopy v0.95b3
#
DISCID=b80d810d
DTITLE=Sketch Show - Loophole
DYEAR=2003
DGENRE=Techno
TTITLE0=Mars
TTITLE1=Wiper
TTITLE2=Chronograph
TTITLE3=Plankton
TTITLE4=Flakes
TTITLE5=Attention Tokyo
TTITLE6=Night Talker (Safety Scissors mix)
TTITLE7=Traum 6.6
TTITLE8=Scotoma
TTITLE9=Fly Me to the River
TTITLE10=Ekot (Cornelius mix)
TTITLE11=Stella
TTITLE12=CD-EXTRA
EXTD=YEAR: 2003
EXTT0=
EXTT1=
EXTT2=
EXTT3=
EXTT4=
EXTT5=
EXTT6=
EXTT7=
EXTT8=
EXTT9=
EXTT10=
EXTT11=
EXTT12=
PLAYORDER=
